<svg width="211" height="24" viewBox="0 0 211 24" fill="none" xmlns="http://www.w3.org/2000/svg">
<path d="M14.7845 23.9684C14.4172 24.0501 14.096 23.9733 13.8209 23.7383C13.545 23.504 13.4071 23.1828 13.4071 22.7747C13.4071 22.489 13.5042 22.229 13.6985 21.9947C13.8919 21.7596 14.1315 21.6013 14.4172 21.5197C14.9273 21.3972 15.4224 21.2389 15.9024 21.0446C16.3815 20.8511 16.8456 20.6116 17.2945 20.3259C17.5598 20.1626 17.8508 20.0965 18.1675 20.1275C18.4834 20.1577 18.7434 20.2749 18.9474 20.4789C19.2331 20.7646 19.3609 21.0911 19.3307 21.4584C19.2996 21.8258 19.1209 22.1115 18.7944 22.3155C18.1618 22.7236 17.5141 23.0604 16.8513 23.3256C16.1876 23.5909 15.4987 23.8052 14.7845 23.9684ZM20.6922 18.7342C20.4881 18.5301 20.3706 18.275 20.3396 17.9689C20.3093 17.6628 20.3759 17.3874 20.5391 17.1425C20.8044 16.6935 21.0391 16.2344 21.2432 15.765C21.4472 15.2957 21.6105 14.7957 21.7329 14.2652C21.8145 13.9795 21.9778 13.7346 22.2227 13.5305C22.4675 13.3265 22.7328 13.2244 23.0185 13.2244C23.4266 13.2244 23.7482 13.3673 23.9833 13.653C24.2176 13.9387 24.2837 14.2652 24.1817 14.6325C24.0184 15.3671 23.7989 16.0662 23.523 16.7299C23.2479 17.3927 22.9063 18.02 22.4981 18.6117C22.2941 18.9178 22.0137 19.086 21.657 19.1162C21.2995 19.1472 20.9779 19.0199 20.6922 18.7342ZM22.9879 10.7757C22.7022 10.7757 22.4422 10.6736 22.208 10.4696C21.9729 10.2655 21.8145 10.0206 21.7329 9.73492C21.6105 9.20435 21.4472 8.69909 21.2432 8.21913C21.0391 7.73998 20.8044 7.28614 20.5391 6.85761C20.3759 6.61273 20.3093 6.33724 20.3396 6.03114C20.3706 5.72505 20.4881 5.46997 20.6922 5.2659C20.9779 4.98021 21.2995 4.84757 21.657 4.86798C22.0137 4.88838 22.2941 5.05163 22.4981 5.35773C22.9063 5.94952 23.2532 6.58702 23.5389 7.27023C23.8246 7.95425 24.049 8.65338 24.2123 9.36761C24.2939 9.73492 24.2123 10.0614 23.9674 10.3471C23.7225 10.6328 23.396 10.7757 22.9879 10.7757ZM9.61145 23.9378C6.81577 23.2848 4.51473 21.8564 2.70835 19.6525C0.902783 17.4486 0 14.8978 0 12C0 9.08191 0.897886 6.5107 2.69366 4.28639C4.48943 2.06208 6.78516 0.643833 9.58084 0.031638C9.94816 -0.049988 10.2698 0.0263323 10.5457 0.260599C10.8207 0.495681 10.9583 0.807084 10.9583 1.19481C10.9583 1.4805 10.8611 1.74048 10.6669 1.97474C10.4734 2.20983 10.2339 2.36818 9.94816 2.44981C7.76467 2.98037 5.9689 4.13334 4.56085 5.90871C3.1528 7.68407 2.44878 9.71451 2.44878 12C2.44878 14.2856 3.1528 16.3009 4.56085 18.0461C5.9689 19.7904 7.76467 20.9483 9.94816 21.5197C10.2339 21.6013 10.4734 21.7645 10.6669 22.0094C10.8611 22.2543 10.9583 22.5196 10.9583 22.8053C10.9583 23.193 10.8256 23.4991 10.5604 23.7236C10.2951 23.948 9.97877 24.0195 9.61145 23.9378ZM17.3863 3.70481C16.917 3.41911 16.4374 3.16893 15.9477 2.95425C15.4579 2.74039 14.958 2.57225 14.4478 2.44981C14.1621 2.36818 13.9172 2.20983 13.7132 1.97474C13.5091 1.74048 13.4071 1.4805 13.4071 1.19481C13.4071 0.807084 13.545 0.495681 13.8209 0.260599C14.096 0.0263323 14.4172 -0.049988 14.7845 0.031638C15.4987 0.19489 16.1925 0.409158 16.866 0.674442C17.5394 0.939727 18.1924 1.27643 18.825 1.68456C19.1515 1.88863 19.3302 2.17432 19.3613 2.54164C19.3915 2.90895 19.2637 3.23546 18.978 3.52115C18.774 3.72521 18.5242 3.84765 18.2287 3.88846C17.9324 3.92928 17.6516 3.86806 17.3863 3.70481Z" fill="black"/>
<path d="M16.5487 16.3262C16.5487 16.6239 16.4836 16.9179 16.3579 17.1877C16.2322 17.4576 16.049 17.6966 15.821 17.888C15.5931 18.0795 15.326 18.2187 15.0386 18.296C14.7511 18.3732 14.4502 18.3866 14.1571 18.3352C13.8639 18.2838 13.5855 18.1688 13.3415 17.9983C13.0975 17.8279 12.8937 17.6061 12.7445 17.3485C12.5954 17.0909 12.5044 16.8038 12.478 16.5073C12.4516 16.2108 12.4904 15.9121 12.5918 15.6323L9.58938 13.7034C9.30263 13.9846 8.93921 14.175 8.5447 14.2505C8.15019 14.326 7.74216 14.2833 7.37181 14.1278C7.00145 13.9723 6.68527 13.7109 6.46292 13.3764C6.24056 13.0419 6.12195 12.6492 6.12195 12.2475C6.12195 11.8458 6.24056 11.4531 6.46292 11.1186C6.68527 10.7841 7.00145 10.5227 7.37181 10.3672C7.74216 10.2117 8.15019 10.169 8.5447 10.2445C8.93921 10.32 9.30263 10.5103 9.58938 10.7916L12.5918 8.86556C12.4198 8.39314 12.428 7.87393 12.6147 7.40715C12.8014 6.94037 13.1536 6.55874 13.6039 6.33519C14.0542 6.11164 14.571 6.06185 15.0557 6.19532C15.5404 6.32879 15.959 6.63617 16.2313 7.05872C16.5037 7.48128 16.6109 7.98937 16.5323 8.48593C16.4537 8.98249 16.1949 9.43269 15.8054 9.75051C15.4159 10.0683 14.9229 10.2315 14.4207 10.2088C13.9185 10.1861 13.4422 9.97914 13.0829 9.62749L10.0805 11.5564C10.2428 12.0048 10.2428 12.4959 10.0805 12.9443L13.0829 14.8732C13.3696 14.5926 13.7326 14.4028 14.1266 14.3276C14.5205 14.2523 14.928 14.2948 15.2979 14.4499C15.6678 14.605 15.9837 14.8657 16.2062 15.1995C16.4287 15.5332 16.5478 15.9251 16.5487 16.3262Z" fill="#DC1E11"/>
<path d="M49.8571 11.2945H38.3674V14.1449H46.3309C46.135 15.6141 45.5081 16.8875 44.4502 17.965C43.3923 19.0228 41.8447 19.5812 39.8073 19.6399C37.6328 19.6203 35.9285 18.9543 34.6943 17.6417C33.4405 16.3488 32.8038 14.5367 32.7842 12.2054C32.8038 9.89379 33.4503 8.02293 34.7237 6.59284C35.997 5.14316 37.7699 4.39874 40.0424 4.35956C41.5117 4.35956 42.7654 4.673 43.8037 5.29989C44.842 5.90718 45.7138 6.83772 46.419 8.09149L49.4457 6.65161C48.4662 4.92767 47.183 3.62492 45.5962 2.74336C44.0094 1.8618 42.119 1.42102 39.9249 1.42102C36.6337 1.47979 34.0282 2.49848 32.1084 4.4771C30.1689 6.45571 29.1796 9.03182 29.1404 12.2054C29.1796 15.477 30.1297 18.0139 31.9908 19.8162C33.8519 21.6381 36.3496 22.5589 39.4841 22.5785C41.4235 22.5589 43.0005 22.1769 44.2151 21.4324C45.4101 20.7076 46.3211 19.7967 46.948 18.6996L47.183 21.9908H49.8571V11.2945Z" fill="black"/>
<path d="M61.5316 7.15116C59.8076 7.15116 58.4755 7.43522 57.5352 8.00334C56.5948 8.57145 55.9484 9.39424 55.5957 10.4717V7.29809H52.1577V21.9908H55.5957V16.0255C55.5957 13.9686 56.0365 12.4993 56.9181 11.6177C57.7996 10.7362 59.1416 10.3052 60.9439 10.3248H63.5298V7.15116H61.5316Z" fill="black"/>
<path d="M71.3711 22.5785C73.8786 22.5393 75.8768 21.8144 77.3657 20.404C78.835 18.9935 79.5892 17.0932 79.6284 14.7032C79.5892 12.274 78.835 10.3444 77.3657 8.91428C75.8768 7.4842 73.8786 6.74956 71.3711 6.71038C68.8439 6.74956 66.8457 7.4842 65.3765 8.91428C63.8876 10.364 63.1236 12.3132 63.0844 14.762C63.1236 17.1324 63.8876 19.0228 65.3765 20.4333C66.8457 21.8242 68.8439 22.5393 71.3711 22.5785ZM71.3711 19.7575C69.9214 19.7379 68.7656 19.2775 67.9036 18.3764C67.0416 17.4556 66.6009 16.2312 66.5813 14.7032C66.6009 13.1164 67.0416 11.8626 67.9036 10.9419C68.7656 10.0211 69.9214 9.55097 71.3711 9.53137C72.8208 9.55097 73.9668 10.0309 74.8092 10.9713C75.6711 11.9116 76.1119 13.1752 76.1315 14.762C76.1119 16.29 75.6711 17.4948 74.8092 18.3764C73.9668 19.2775 72.8208 19.7379 71.3711 19.7575Z" fill="black"/>
<path d="M88.0025 22.5785C90.51 22.5393 92.5082 21.8144 93.9971 20.404C95.4664 18.9935 96.2206 17.0932 96.2598 14.7032C96.2206 12.274 95.4664 10.3444 93.9971 8.91428C92.5082 7.4842 90.51 6.74956 88.0025 6.71038C85.4753 6.74956 83.4771 7.4842 82.0079 8.91428C80.519 10.364 79.755 12.3132 79.7158 14.762C79.755 17.1324 80.519 19.0228 82.0079 20.4333C83.4771 21.8242 85.4753 22.5393 88.0025 22.5785ZM88.0025 19.7575C86.5528 19.7379 85.397 19.2775 84.535 18.3764C83.673 17.4556 83.2323 16.2312 83.2127 14.7032C83.2323 13.1164 83.673 11.8626 84.535 10.9419C85.397 10.0211 86.5528 9.55097 88.0025 9.53137C89.4522 9.55097 90.5982 10.0309 91.4406 10.9713C92.3025 11.9116 92.7433 13.1752 92.7629 14.762C92.7433 16.29 92.3025 17.4948 91.4406 18.3764C90.5982 19.2775 89.4522 19.7379 88.0025 19.7575Z" fill="black"/>
<path d="M102.254 21.9908H105.868L112.774 7.29809H109.012L104.076 18.6996L99.1388 7.29809H95.3481L102.254 21.9908Z" fill="black"/>
<path d="M120.322 22.5785C121.889 22.5589 123.231 22.2846 124.348 21.7557C125.484 21.2267 126.493 20.5215 127.374 19.6399L125.229 17.583C124.583 18.249 123.858 18.778 123.055 19.1698C122.271 19.5616 121.34 19.7673 120.263 19.7869C118.735 19.7869 117.569 19.444 116.766 18.7584C115.963 18.0727 115.483 17.0932 115.326 15.8198H127.786V14.6738C127.766 12.1075 127.08 10.1387 125.729 8.76736C124.377 7.41563 122.486 6.72997 120.057 6.71038C117.471 6.72997 115.463 7.43522 114.033 8.82613C112.623 10.2366 111.908 12.1859 111.888 14.6738C111.888 17.1814 112.593 19.1208 114.004 20.4921C115.414 21.8634 117.52 22.5589 120.322 22.5785ZM115.326 13.2045C115.503 12.0095 115.992 11.0986 116.796 10.4717C117.618 9.82523 118.715 9.50199 120.087 9.50199C121.36 9.50199 122.369 9.81543 123.113 10.4423C123.838 11.0692 124.279 11.9899 124.436 13.2045H115.326Z" fill="black"/>
<path d="M138.404 22.5785C141.284 22.5589 143.507 21.9908 145.075 20.8741C146.642 19.7379 147.435 18.1119 147.455 15.9962C147.318 13.567 146.309 12.0095 144.428 11.3239C142.567 10.6186 140.677 10.2072 138.757 10.0897C136.563 9.81543 134.986 9.4726 134.026 9.06121C133.066 8.64982 132.605 8.04252 132.645 7.23932C132.684 6.2794 133.183 5.57415 134.143 5.12357C135.103 4.673 136.337 4.44771 137.846 4.44771C139.041 4.40853 140.197 4.64361 141.313 5.15296C142.43 5.6623 143.272 6.681 143.84 8.20903L147.367 7.50379C146.838 5.50558 145.78 3.98734 144.193 2.94906C142.587 1.93037 140.5 1.42102 137.934 1.42102C135.27 1.42102 133.125 1.93037 131.499 2.94906C129.892 3.96775 129.069 5.4664 129.03 7.44502C129.148 9.59994 130.068 11.0398 131.792 11.7647C133.516 12.4895 135.309 12.9303 137.17 13.087C139.364 13.3221 141.029 13.6159 142.165 13.9686C143.302 14.3212 143.87 15.0264 143.87 16.0843C143.889 17.103 143.458 17.916 142.577 18.5233C141.676 19.1502 140.265 19.4734 138.345 19.493C136.935 19.5322 135.622 19.2579 134.408 18.6702C133.173 18.0825 132.331 16.9855 131.881 15.3791L128.354 16.0843C128.785 18.3764 129.951 20.0415 131.851 21.0798C133.732 22.0985 135.916 22.5981 138.404 22.5785Z" fill="black"/>
<path d="M158.161 6.71038C157.045 6.69079 155.967 6.92588 154.929 7.41563C153.871 7.92498 152.999 8.81633 152.314 10.0897V2.00873H148.876V21.9908H152.314V16.0549C152.372 13.7041 152.911 12.0389 153.93 11.0594C154.968 10.0603 156.095 9.58035 157.309 9.61953C158.465 9.59994 159.435 9.96236 160.218 10.7068C161.002 11.4512 161.413 12.656 161.453 14.3212V21.9908H164.891V13.9392C164.851 11.5688 164.215 9.77625 162.981 8.56166C161.766 7.32747 160.16 6.71038 158.161 6.71038Z" fill="black"/>
<path d="M172.176 22.5785C173.567 22.5589 174.811 22.3042 175.908 21.8144C177.005 21.3443 177.837 20.688 178.406 19.8456C178.406 20.2962 178.415 20.688 178.435 21.021C178.435 21.3541 178.445 21.6773 178.464 21.9908H181.873C181.834 21.4226 181.795 20.786 181.755 20.0807C181.736 19.3951 181.726 18.631 181.726 17.7887V12.705C181.707 10.7656 181.04 9.29629 179.728 8.29719C178.415 7.29809 176.544 6.79854 174.115 6.79854C172.666 6.73977 171.177 7.02383 169.649 7.65071C168.121 8.2776 166.994 9.56076 166.269 11.5002L169.619 12.2936C170.09 11.2161 170.746 10.4815 171.588 10.0897C172.411 9.71748 173.293 9.54117 174.233 9.56076C175.33 9.54117 176.27 9.76646 177.054 10.2366C177.837 10.7068 178.259 11.5198 178.317 12.6756L173.557 12.9401C171.951 12.9401 170.305 13.2339 168.62 13.8216C166.916 14.4093 165.995 15.7121 165.858 17.7299C165.917 19.3755 166.553 20.5901 167.768 21.3737C168.983 22.1769 170.452 22.5785 172.176 22.5785ZM173.028 19.8456C171.794 19.826 170.893 19.6105 170.325 19.1992C169.756 18.8073 169.472 18.3274 169.472 17.7593C169.492 17.054 169.923 16.5251 170.765 16.1725C171.608 15.8198 172.724 15.6141 174.115 15.5554L178.406 15.3497V15.4672C178.386 16.8973 177.877 17.9846 176.878 18.729C175.898 19.4734 174.615 19.8456 173.028 19.8456Z" fill="black"/>
<path d="M192.832 7.15116C191.108 7.15116 189.776 7.43522 188.836 8.00334C187.896 8.57145 187.249 9.39424 186.897 10.4717V7.29809H183.458V21.9908H186.897V16.0255C186.897 13.9686 187.337 12.4993 188.219 11.6177C189.1 10.7362 190.442 10.3052 192.245 10.3248H194.831V7.15116H192.832Z" fill="black"/>
<path d="M202.819 22.5785C204.386 22.5589 205.728 22.2846 206.845 21.7557C207.981 21.2267 208.99 20.5215 209.871 19.6399L207.726 17.583C207.08 18.249 206.355 18.778 205.552 19.1698C204.768 19.5616 203.838 19.7673 202.76 19.7869C201.232 19.7869 200.066 19.444 199.263 18.7584C198.46 18.0727 197.98 17.0932 197.823 15.8198H210.283V14.6738C210.263 12.1075 209.577 10.1387 208.226 8.76736C206.874 7.41563 204.984 6.72997 202.554 6.71038C199.968 6.72997 197.96 7.43522 196.53 8.82613C195.12 10.2366 194.405 12.1859 194.385 14.6738C194.385 17.1814 195.09 19.1208 196.501 20.4921C197.911 21.8634 200.017 22.5589 202.819 22.5785ZM197.823 13.2045C198 12.0095 198.489 11.0986 199.293 10.4717C200.115 9.82523 201.212 9.50199 202.584 9.50199C203.857 9.50199 204.866 9.81543 205.61 10.4423C206.335 11.0692 206.776 11.9899 206.933 13.2045H197.823Z" fill="black"/>
</svg>
