<svg width="175" height="175" viewBox="0 0 175 175" fill="none" xmlns="http://www.w3.org/2000/svg">
<rect width="175" height="175" fill="#D9D9D9"/>
<path d="M46.375 62C46.375 60.7071 46.8886 59.4671 47.8029 58.5529C48.7171 57.6386 49.9571 57.125 51.25 57.125H122.75C124.043 57.125 125.283 57.6386 126.197 58.5529C127.111 59.4671 127.625 60.7071 127.625 62C127.625 63.2929 127.111 64.5329 126.197 65.4471C125.283 66.3614 124.043 66.875 122.75 66.875H51.25C49.9571 66.875 48.7171 66.3614 47.8029 65.4471C46.8886 64.5329 46.375 63.2929 46.375 62ZM51.25 92.875H98.375C99.6679 92.875 100.908 92.3614 101.822 91.4471C102.736 90.5329 103.25 89.2929 103.25 88C103.25 86.7071 102.736 85.4671 101.822 84.5529C100.908 83.6386 99.6679 83.125 98.375 83.125H51.25C49.9571 83.125 48.7171 83.6386 47.8029 84.5529C46.8886 85.4671 46.375 86.7071 46.375 88C46.375 89.2929 46.8886 90.5329 47.8029 91.4471C48.7171 92.3614 49.9571 92.875 51.25 92.875ZM78.875 109.125H51.25C49.9571 109.125 48.7171 109.639 47.8029 110.553C46.8886 111.467 46.375 112.707 46.375 114C46.375 115.293 46.8886 116.533 47.8029 117.447C48.7171 118.361 49.9571 118.875 51.25 118.875H78.875C80.1679 118.875 81.4079 118.361 82.3221 117.447C83.2364 116.533 83.75 115.293 83.75 114C83.75 112.707 83.2364 111.467 82.3221 110.553C81.4079 109.639 80.1679 109.125 78.875 109.125ZM137.168 87.7766C136.792 89.0113 135.943 90.0469 134.805 90.6561C133.667 91.2654 132.334 91.3986 131.098 91.0266L121.125 88.0528V114C121.125 117.105 120.137 120.129 118.304 122.634C116.472 125.14 113.889 126.998 110.93 127.938C107.972 128.879 104.79 128.853 101.847 127.866C98.9039 126.878 96.3513 124.979 94.5589 122.444C92.7664 119.91 91.8271 116.87 91.8769 113.766C91.9267 110.662 92.963 107.654 94.8358 105.178C96.7086 102.702 99.3208 100.886 102.294 99.9933C105.268 99.1005 108.448 99.177 111.375 100.212V81.5C111.375 80.7401 111.553 79.9907 111.894 79.3118C112.236 78.6328 112.731 78.043 113.341 77.5895C113.951 77.1361 114.658 76.8314 115.406 76.6999C116.155 76.5684 116.924 76.6137 117.652 76.8322L133.902 81.7072C135.139 82.0792 136.179 82.9275 136.791 84.0657C137.404 85.2038 137.539 86.5386 137.168 87.7766ZM111.375 114C111.375 113.036 111.089 112.093 110.553 111.292C110.018 110.49 109.256 109.865 108.366 109.496C107.475 109.127 106.495 109.031 105.549 109.219C104.603 109.407 103.735 109.871 103.053 110.553C102.371 111.235 101.907 112.103 101.719 113.049C101.531 113.995 101.627 114.975 101.996 115.866C102.365 116.756 102.99 117.518 103.792 118.053C104.593 118.589 105.536 118.875 106.5 118.875C107.793 118.875 109.033 118.361 109.947 117.447C110.861 116.533 111.375 115.293 111.375 114Z" fill="#A4A4AA"/>
</svg>
